#!OML:ASF F:\VICON\USERDATA\INSTALL\rory3\rory3.ASF
:FULLY-SPECIFIED
:DEGREES
98
root 0.817037 17.121 -9.1472 3.51778 -3.94645 -5.94345
lowerback 6.50564 1.63974 5.13852
upperback 0.233586 2.66221 2.85512
thorax -3.31163 1.26232 -0.171346
lowerneck -16.3191 -2.75911 -9.39897
upperneck 21.5316 -2.38478 4.41272
head 9.69254 -1.37884 2.7955
rclavicle 1.6847e-014 2.38542e-015
rhumerus -18.8851 -0.602082 -80.5734
rradius 39.7608
rwrist 0.231191
rhand -14.2656 15.0783
rfingers 7.12502
rthumb 11.873 -14.5651
lclavicle 1.6847e-014 2.38542e-015
lhumerus -36.378 10.391 84.6553
lradius 20.9946
lwrist -19.9397
lhand -7.46212 27.3007
lfingers 7.12502
lthumb 18.4263 56.448
rfemur 12.9195 3.31049 32.3356
rtibia 10.9756
rfoot -15.5317 -5.04413
rtoes 3.02833
lfemur -35.1343 -4.8688 -10.0175
ltibia 20.6694
lfoot -8.11388 5.69962
ltoes -5.62869
99
root 0.827793 17.1008 -8.96811 3.39544 -3.77036 -5.96316
lowerback 6.91082 1.58248 5.13519
upperback 0.102404 2.62547 2.89173
thorax -3.67913 1.23478 -0.14372
lowerneck -16.1522 -2.66018 -9.36568
upperneck 21.5202 -2.28497 4.46399
head 9.64905 -1.32547 2.82177
rclavicle 2.1916e-014 -8.74653e-015
rhumerus -19.3524 -0.605791 -80.5461
rradius 40.4759
rwrist -0.0288771
rhand -14.1286 14.9673
rfingers 7.12502
rthumb 12.0051 -14.6684
lclavicle 2.1916e-014 -8.74653e-015
lhumerus -36.8778 10.9266 84.3972
lradius 20.7485
lwrist -20.5852
lhand -7.75148 27.0696
lfingers 7.12502
lthumb 18.1479 56.243
rfemur 13.4851 3.49923 32.3551
rtibia 11.4471
rfoot -15.7617 -4.89228
rtoes -1.21916
lfemur -35.0288 -3.6347 -10.8086
ltibia 21.3885
lfoot -6.33564 3.59061
ltoes -4.91718
100
root 0.837642 17.0928 -8.78471 3.20839 -3.63566 -5.84922
lowerback 7.17059 1.53603 4.97567
upperback 0.19702 2.56467 2.88419
thorax -3.73527 1.20721 -0.063846
lowerneck -16.4633 -2.56848 -9.16
upperneck 21.4495 -2.16311 4.39576
head 9.66853 -1.25538 2.77781
rclavicle -2.03754e-015 1.55052e-014
rhumerus -19.2999 -0.767746 -80.5876
rradius 40.8076
rwrist -0.065153
rhand -14.0755 15.2449
rfingers 7.12502
rthumb 12.0563 -14.3878
lclavicle -2.03754e-015 1.55052e-014
lhumerus -36.8899 11.524 84.1658
lradius 20.3663
lwrist -21.2379
lhand -8.00148 27.1304
lfingers 7.12502
lthumb 17.9074 56.326
rfemur 13.8633 3.72148 32.2487
rtibia 12.1833
rfoot -15.7052 -4.63864
rtoes -0.631329
lfemur -34.8081 -2.83196 -11.563
ltibia 22.3039
lfoot -4.85694 2.3809
ltoes -2.4929
101
root 0.848035 17.0839 -8.58987 3.02601 -3.63298 -5.80048
lowerback 7.15149 1.617 4.92754
upperback 0.475045 2.65105 2.8794
thorax -3.43395 1.26007 -0.0454663
lowerneck -16.9137 -2.77316 -9.33398
upperneck 21.4295 -2.37642 4.48361
head 9.76599 -1.35355 2.80765
rclavicle -4.52235e-015 -1.43125e-014
rhumerus -18.9388 -1.17186 -80.5191
rradius 40.9283
rwrist -0.00790315
rhand -14.173 15.6091
rfingers 7.12502
rthumb 11.9623 -14.0291
lclavicle -4.52235e-015 -1.43125e-014
lhumerus -36.6519 11.8227 84.1528
lradius 20.1185
lwrist -21.5843
lhand -7.26793 28.4245
lfingers 7.12502
lthumb 18.6131 57.554
rfemur 14.1557 3.92535 32.183
rtibia 13.1879
rfoot -15.3244 -4.30563
rtoes -1.86124
lfemur -34.4971 -2.47009 -12.0161
ltibia 23.2623
lfoot -3.6921 2.12662
ltoes -1.84354
102
root 0.864956 17.0771 -8.38852 2.88053 -3.60372 -5.64877
lowerback 7.1144 1.67011 4.8374
upperback 0.65448 2.70041 2.84063
thorax -3.22706 1.29182 -0.0358345
lowerneck -17.1199 -2.98703 -9.52623
upperneck 21.4257 -2.6138 4.53973
head 9.8263 -1.47049 2.82624
rclavicle 1.01877e-014 -4.77083e-015
rhumerus -18.8094 -1.47869 -80.441
rradius 41.1273
rwrist 0.0763033
rhand -14.0457 15.7418
rfingers 7.12502
rthumb 12.0851 -13.8893
lclavicle 1.01877e-014 -4.77083e-015
lhumerus -36.6887 12.0395 84.1192
lradius 20.0263
lwrist -21.9329
lhand -6.85912 28.8749
lfingers 7.12502
lthumb 19.0063 57.9662
rfemur 14.3747 4.0087 31.9616
rtibia 14.3823
rfoot -15.2217 -4.55173
rtoes -4.13324
lfemur -34.1924 -2.73825 -12.346
ltibia 24.16
lfoot -2.59643 2.50787
ltoes -3.73135
103
root 0.883215 17.0848 -8.1812 2.79829 -3.48038 -5.35062
lowerback 7.18391 1.63525 4.52444
upperback 0.617131 2.63648 2.8379
thorax -3.32075 1.26241 0.138343
lowerneck -17.1049 -3.03223 -9.61085
upperneck 21.4222 -2.6481 4.51242
head 9.82656 -1.49655 2.82581
rclavicle -1.76918e-014 -8.34896e-015
rhumerus -19.0834 -1.55458 -80.362
rradius 41.4482
rwrist 0.221137
rhand -14.0964 15.5308
rfingers 7.12502
rthumb 12.0362 -14.1031
lclavicle -1.76918e-014 -8.34896e-015
lhumerus -36.9722 12.8732 83.7908
lradius 19.6048
lwrist -22.785
lhand -6.85614 28.4411
lfingers 7.12502
lthumb 19.0092 57.5322
rfemur 14.515 4.06303 31.6139
rtibia 15.5241
rfoot -14.8167 -4.3909
rtoes -4.34191
lfemur -34.1064 -3.25694 -12.7168
ltibia 25.1401
lfoot -1.22882 2.98602
ltoes -5.65161
104
root 0.899003 17.1036 -7.96784 2.71666 -3.36209 -4.96466
lowerback 7.10923 1.63682 4.10936
upperback 0.566652 2.60156 2.77369
thorax -3.34744 1.25004 0.30782
lowerneck -16.8609 -2.9067 -9.35836
upperneck 21.204 -2.53609 4.39515
head 9.68887 -1.43612 2.75564
rclavicle -1.2424e-015 3.97569e-015
rhumerus -19.4607 -1.71909 -80.31
rradius 41.6124
rwrist 0.282689
rhand -14.1859 15.6171
rfingers 7.12502
rthumb 11.9499 -14.0218
lclavicle -1.2424e-015 3.97569e-015
lhumerus -37.1852 13.8587 83.2344
lradius 18.952
lwrist -23.7525
lhand -7.17416 28.293
lfingers 7.12502
lthumb 18.7033 57.4138
rfemur 14.6339 4.25198 31.2365
rtibia 16.7356
rfoot -14.2649 -4.27527
rtoes -4.91783
lfemur -34.0232 -3.40903 -13.3025
ltibia 26.1302
lfoot 0.00523853 3.20941
ltoes -6.75218
105
root 0.915884 17.1179 -7.7528 2.59841 -3.17466 -4.61811
lowerback 6.98316 1.6654 3.80153
upperback 0.516155 2.6079 2.69591
thorax -3.33885 1.25723 0.401487
lowerneck -16.488 -2.67122 -8.97947
upperneck 20.9258 -2.32034 4.29805
head 9.49712 -1.31524 2.68513
rclavicle 9.88954e-015 7.95139e-016
rhumerus -19.917 -2.07066 -80.194
rradius 41.7237
rwrist 0.349176
rhand -14.1331 15.7024
rfingers 7.12502
rthumb 12.0008 -13.9335
lclavicle 9.88954e-015 7.95139e-016
lhumerus -37.414 14.4148 82.8333
lradius 18.4532
lwrist -24.3122
lhand -7.54903 28.1558
lfingers 7.12502
lthumb 18.3427 57.311
rfemur 14.684 4.36231 30.9087
rtibia 18.175
rfoot -13.6454 -4.24363
rtoes -5.62628
lfemur -33.8226 -3.21256 -13.9963
ltibia 27.0555
lfoot 0.41486 2.7924
ltoes -4.88797
106
root 0.932054 17.1313 -7.53568 2.40934 -2.87079 -4.26557
lowerback 7.0204 1.64452 3.52862
upperback 0.509436 2.55706 2.57071
thorax -3.37351 1.23478 0.427731
lowerneck -16.4509 -2.69222 -8.81287
upperneck 21.0748 -2.38854 4.24818
head 9.54429 -1.34178 2.63304
rclavicle 3.30976e-014 3.57812e-015
rhumerus -20.3597 -2.67064 -80.2128
rradius 41.8686
rwrist 0.5144
rhand -14.0916 15.7262
rfingers 7.12502
rthumb 12.0408 -13.9074
lclavicle 3.30976e-014 3.57812e-015
lhumerus -37.4907 14.9605 82.3763
lradius 17.9953
lwrist -24.9328
lhand -7.15372 28.6057
lfingers 7.12502
lthumb 18.723 57.7246
rfemur 14.5766 4.32261 30.5763
rtibia 19.9175
rfoot -12.8456 -4.20209
rtoes -6.17671
lfemur -33.5208 -3.01439 -14.7304
ltibia 27.8869
lfoot 0.398463 1.50814
ltoes -1.76512
